<svg width="75" height="76" viewBox="0 0 75 76" fill="none" xmlns="http://www.w3.org/2000/svg">
<path d="M30.3979 75.0413H32.903V63.8243H30.3979V75.0413ZM17.3862 56.7951L20.34 60.7584H21.4991V54.8134H20.3026V58.7393L17.3862 54.8508H16.1898V60.7958H17.3862V56.7951ZM30.7718 54.8134H25.7242V56.0847H27.631V60.7584H28.9023V56.0847H30.7718V54.8134ZM23.0321 71.9379L20.6392 63.787H18.6575L16.3019 71.9005L14.1333 63.787H11.703L14.8811 75.0039H17.5732L19.667 67.6007L21.7608 75.0039H24.4529L27.631 63.787H25.2007L23.0321 71.9379ZM39.8949 47.5598H47.2233C53.9534 47.5598 59.4123 42.1009 59.4123 35.3707V12.1891C59.4123 5.45891 53.9534 0 47.2233 0H39.8575C39.6705 0 39.5584 0.149559 39.5584 0.299118V47.2233C39.5584 47.4102 39.7079 47.5598 39.8949 47.5598ZM48.9432 21.3496C51.5979 21.3496 53.7665 23.5182 53.7665 26.1728C53.7665 28.8275 51.5979 30.9961 48.9432 30.9961C46.2885 30.9961 44.1199 28.8275 44.1199 26.1728C44.1573 23.5182 46.2885 21.3496 48.9432 21.3496ZM11.703 54.8134H10.3944V60.7584H11.703V54.8134ZM1.75732 56.7951L4.71111 60.7584H5.87019V54.8134H4.67372V58.7393L1.75732 54.8508H0.560847V60.7958H1.75732V56.7951ZM5.27196 68.2363H5.19718C3.81376 68.012 2.65468 67.7877 2.54251 67.0025C2.54251 66.8903 2.54251 66.6286 2.72945 66.3668C3.10335 65.9182 3.96332 65.7312 5.23457 65.7312C6.69277 65.7312 8.15097 66.2921 8.67443 66.5164L9.45961 64.5721C8.89877 64.3478 7.10406 63.7122 5.1224 63.7122C2.69206 63.7122 0.11217 64.9086 0.11217 67.0772C0.11217 68.8346 1.34603 69.7693 4.56155 70.3302C6.84233 70.7041 8.07619 70.9284 8.0388 71.9005C8.00141 72.424 7.59012 73.3213 5.04762 73.3213C2.99118 73.3213 1.53298 72.5735 1.04691 72.2744L0 74.1813C0.560847 74.4804 2.46773 75.3778 4.89806 75.3778C8.45009 75.3778 10.357 74.1439 10.357 71.7884C10.3944 70.1058 9.57178 68.9841 5.27196 68.2363ZM19.2557 14.2829C19.2557 16.7506 21.2748 18.7697 23.7425 18.7697C26.2102 18.7697 28.2293 16.7506 28.2293 14.2829C28.2293 11.8152 26.2102 9.79612 23.7425 9.79612C21.2374 9.79612 19.2557 11.7778 19.2557 14.2829ZM39.7453 59.6741H36.3429V58.2906H39.4836V57.2063H36.3429V55.9351H39.7453V54.8508H35.109V60.7958H39.7453V59.6741ZM67.5633 54.6265C65.806 54.6265 64.3852 56.0473 64.3852 57.8046C64.3852 59.5619 65.806 60.9827 67.5633 60.9827C69.3206 60.9827 70.7415 59.5619 70.7415 57.8046C70.7041 56.0473 69.2833 54.6265 67.5633 54.6265ZM67.5633 59.6367C66.5538 59.6367 65.7312 58.8141 65.7312 57.8046C65.7312 56.7951 66.5538 55.9725 67.5633 55.9725C68.5728 55.9725 69.3954 56.7951 69.3954 57.8046C69.3954 58.8141 68.5728 59.6367 67.5633 59.6367ZM67.9372 68.2363H62.7027V63.8243H60.3845V75.0413H62.7027V70.5545H67.9372V75.0413H70.2554V63.8243H67.9372V68.2363ZM71.1901 73.8822H71.6762V75.0413H71.9379V73.8822H72.3866V73.6205H71.1901V73.8822ZM73.77 73.5831L73.3961 74.63L73.0222 73.5831H72.6109V75.0039H72.8727V73.9196L73.2466 75.0039H73.5083L73.8822 73.9196V75.0039H74.1439V73.5831H73.77ZM52.9439 65.9556C54.2152 65.9556 55.3742 66.6286 56.0099 67.7129L57.842 66.1425C56.7203 64.4974 54.8882 63.4878 52.8691 63.4878C49.5788 63.4878 46.8868 66.1799 46.8868 69.4702C46.8868 72.7605 49.5788 75.4526 52.8691 75.4526C54.8882 75.4526 56.7203 74.4804 57.842 72.7979L56.0099 71.2275C55.3742 72.2744 54.2152 72.9848 52.9439 72.9848C50.9997 72.9848 49.3919 71.4145 49.3919 69.5076C49.3919 67.6007 50.9623 65.9556 52.9439 65.9556ZM35.6325 66.1799H39.2219V75.0039H41.6522V66.1799H45.1668V63.787H35.6698V66.1799H35.6325ZM49.9901 60.7584V54.8134H48.7937V58.7393L45.8773 54.8508H44.6808V60.7958H45.8773V56.8325L48.831 60.7958H49.9901V60.7584ZM34.436 0H24.0416C17.3115 0 11.8526 5.45891 11.8526 12.1891V35.3707C11.8526 42.1009 17.3115 47.5598 24.0416 47.5598H34.436C34.6229 47.5598 34.7725 47.4102 34.7725 47.2233V0.336507C34.7725 0.149558 34.6229 0 34.436 0ZM30.9587 43.746H24.0416C21.7982 43.746 19.7044 42.8861 18.134 41.2783C16.5637 39.7079 15.6663 37.6141 15.6663 35.3707V12.1891C15.6663 9.94568 16.5263 7.85185 18.134 6.28148C19.7044 4.71111 21.7982 3.81376 24.0416 3.81376H30.9587V43.746ZM57.4681 54.8134H55.0004V60.7584H57.4681C59.1506 60.7584 60.534 59.4123 60.534 57.8046C60.534 56.1594 59.1506 54.8134 57.4681 54.8134ZM57.5429 59.5245H56.2342V56.0847H57.5429C58.4776 56.0847 59.2628 56.8698 59.2628 57.8046C59.2628 58.7393 58.4776 59.5245 57.5429 59.5245Z" fill="white"/>
</svg>
