<svg width="32" height="32" viewBox="0 0 32 32" fill="none" xmlns="http://www.w3.org/2000/svg">
<path d="M16 0C7.164 0 0 7.164 0 16C0 24.836 7.164 32 16 32C24.836 32 32 24.836 32 16C32 7.164 24.836 0 16 0ZM26.3373 24.4067C25.9893 23.6253 25.2853 23.0853 23.8427 22.752C20.7853 22.0467 17.9387 21.428 19.3187 18.8253C23.512 10.9027 20.4293 6.66667 16 6.66667C11.4827 6.66667 8.47467 11.0653 12.6813 18.8253C14.1027 21.444 11.1507 22.0613 8.15733 22.752C6.712 23.0853 6.01333 23.6293 5.668 24.4133C3.79467 22.116 2.66667 19.188 2.66667 16C2.66667 8.648 8.648 2.66667 16 2.66667C23.352 2.66667 29.3333 8.648 29.3333 16C29.3333 19.1853 28.2067 22.1107 26.3373 24.4067Z" fill="white"/>
</svg>
