<svg width="24" height="32" viewBox="0 0 24 32" fill="none" xmlns="http://www.w3.org/2000/svg">
<path d="M4.88667 12.0907L0 9.87733V28.544L4.88667 32L24 29.1267V9.33333L4.88667 12.0907ZM2.66667 14.012L4 14.616V28.1067L2.66667 27.164V14.012ZM21.3333 26.832L6.66667 29.036V14.528L21.3333 12.412V26.832ZM18.6667 5.72133L18.6653 8.05333C18.6653 8.38133 18.4253 8.66 18.1013 8.70933C17.6973 8.76933 17.3333 8.456 17.3333 8.04933V5.72133C17.3347 4.8 17.0253 3.98267 16.4627 3.42C15.972 2.92667 15.3333 2.66667 14.6173 2.66667C12.5547 2.66667 10.6707 4.744 10.6667 7.024V9.26533C10.6667 9.59467 10.4253 9.87467 10.1 9.924C9.69733 9.98533 9.33333 9.672 9.33333 9.26533L9.33467 7.02133C9.34 4.00667 11.8227 1.33333 14.6173 1.33333C16.9067 1.33333 18.6693 3.18267 18.6667 5.72133ZM5.33467 8.66667V5.68667C5.34 2.67333 7.82267 0 10.6173 0C11.2733 0 11.876 0.166667 12.4173 0.442667C11.8533 0.669333 11.3213 0.976 10.8333 1.35333L10.6173 1.33333C8.55467 1.33333 6.66933 3.41067 6.66667 5.69067V8.66667C6.66667 8.99733 6.424 9.27733 6.09733 9.32533C5.69733 9.38533 5.33467 9.076 5.33467 8.66667Z" fill="white"/>
</svg>
