<svg width="60" height="70" viewBox="0 0 60 70" fill="none" xmlns="http://www.w3.org/2000/svg">
<g clip-path="url(#clip0_65_90)">
<path d="M1.80005 2.00385H56.8142V60.3176H1.80005V2.00385Z" fill="#44A342"/>
<path d="M46.4071 56.5824L39.7646 6.88776H17.6708L11.3575 56.6145L26.1239 56.5183V52.8366H31.4337V56.5771H46.4018L46.4071 56.5824ZM26.5275 43.2236L28.7204 22.3252L30.9186 43.2236H26.5275Z" fill="white"/>
<path d="M40.9964 46.4298V34.1397H34.0938V51.7733H44.7132V46.4298H40.9964Z" fill="#9CA3AB"/>
<path d="M53.2089 46.4298V34.1397H45.7753V51.7733H56.9257V46.4298H53.2089Z" fill="white"/>
<path d="M55.7522 0H4.24779C2.19292 0 0 2.2229 0 4.30687V65.6931C0 67.7771 2.19292 70 4.24779 70H55.7522C57.8071 70 60 67.7718 60 65.6931V4.30687C60 2.2229 57.8071 0 55.7522 0ZM56.2779 52.6176C56.2779 54.4023 54.8496 55.8504 53.092 55.8504H6.90796C5.15044 55.8504 3.72212 54.4023 3.72212 52.6176V6.84504C3.72212 5.06031 5.15044 3.61221 6.90796 3.61221H53.092C54.8496 3.61221 56.2779 5.06031 56.2779 6.84504V52.6176Z" fill="#231F20"/>
<path d="M11.8672 59.3878V60.2054H10.0778C10.0778 60.9214 10.3168 61.5466 10.8 62.0702C11.1823 62.4817 11.7026 62.8237 12.361 63.0909L11.7398 63.7428C11.2566 63.5504 10.8106 63.3313 10.4017 63.0748C9.95572 62.797 9.62121 62.5191 9.39289 62.2412C9.17519 62.5138 8.84599 62.7916 8.39997 63.0748C7.99112 63.326 7.55572 63.5504 7.08316 63.7428L6.52563 63.0909C7.16811 62.8344 7.67254 62.4924 8.03891 62.0702C8.48493 61.5573 8.70794 60.9321 8.70794 60.2054H7.00882V59.3878H11.8672ZM8.82475 65.6344H14.4V66.4519H8.66546C8.22475 66.4519 7.91148 66.3878 7.72032 66.2596C7.53979 66.1367 7.44953 65.9283 7.44953 65.6451V64.0954H8.81944V65.629L8.82475 65.6344ZM14.3363 64.5603H12.961V61.8084H11.4478V60.9855H12.961V59.2435H14.3363V64.5657V64.5603ZM17.7504 59.9115V59.2008H19.1203V59.9115H20.4212V60.7237H19.1203V61.8993C19.1203 62.7756 19.2796 63.5344 19.6035 64.1809C19.869 64.7206 20.2354 65.1535 20.6973 65.4794L19.8531 66.0031C19.5026 65.7573 19.2106 65.4741 18.9929 65.1535C18.7168 64.7687 18.5256 64.3199 18.4247 63.8122C18.3079 64.3252 18.1062 64.7794 17.8194 65.1641C17.5699 65.4901 17.2619 65.768 16.8849 66.0084L16.1363 65.4848C16.6194 65.1641 16.9964 64.7367 17.2672 64.197C17.5911 63.5664 17.7504 62.8023 17.7504 61.9046V60.729H16.4708V59.9168H17.7504V59.9115ZM19.7522 62.8557V62.0596H20.8725V59.2382H22.2424V66.5321H20.8725V62.8504H19.7522V62.8557ZM24.3345 66.5374H22.9593V59.2435H24.3345V66.5374ZM30.9239 60.2C31.3433 60.8092 31.5557 61.5893 31.5557 62.5351C31.5557 63.5344 31.3433 64.3519 30.9239 64.9771C30.4778 65.6611 29.8513 66.0031 29.0495 66.0031C28.2478 66.0031 27.6106 65.6611 27.1593 64.9771C26.7451 64.3519 26.538 63.5344 26.538 62.5351C26.538 61.5893 26.7451 60.8092 27.1593 60.2C27.6159 59.5321 28.2478 59.2008 29.0495 59.2008C29.8513 59.2008 30.4725 59.5374 30.9239 60.2ZM28.1894 60.7451C28.0088 61.2046 27.9186 61.7977 27.9186 62.5298C27.9186 63.3206 28.0088 63.9512 28.1894 64.4321C28.3858 64.9451 28.6725 65.2069 29.0442 65.2069C29.4159 65.2069 29.692 64.9504 29.8885 64.4321C30.0743 63.9512 30.1646 63.3206 30.1646 62.5298C30.1646 61.8031 30.069 61.2046 29.8885 60.7451C29.6814 60.2428 29.4 59.997 29.0442 59.997C28.6885 59.997 28.3964 60.2481 28.1894 60.7451ZM34.0619 66.5321H32.6867V59.2382H34.0619V66.5321ZM36.9663 61.3222C36.7858 61.1298 36.6955 60.9267 36.6955 60.7076C36.6955 60.2855 36.9929 59.9382 37.5876 59.6496C38.2407 59.3451 39.1433 59.1954 40.2849 59.1954C41.4265 59.1954 42.3239 59.3451 42.9823 59.6496C43.5823 59.9328 43.8849 60.2855 43.8849 60.7076C43.8849 60.9214 43.7893 61.1298 43.6088 61.3222C43.4124 61.5199 43.1309 61.6909 42.7752 61.8351V62.6153H44.3044V63.4435H36.2708V62.6153H37.784V61.8351C37.423 61.6909 37.1522 61.5145 36.9663 61.3222ZM42.8761 64.3199C43.4601 64.587 43.7469 64.9183 43.7469 65.3138C43.7469 65.7092 43.4548 66.0244 42.8761 66.2916C42.2336 66.5909 41.3681 66.7405 40.2796 66.7405C39.1911 66.7405 38.315 66.5909 37.6725 66.2916C37.0991 66.0244 36.8124 65.6985 36.8124 65.3138C36.8124 64.929 37.0991 64.587 37.6725 64.3199C38.315 64.0206 39.1858 63.871 40.2796 63.871C41.3734 63.871 42.2336 64.0206 42.8761 64.3199ZM38.6548 60.2374C38.2938 60.3603 38.1186 60.5153 38.1186 60.7076C38.1186 60.9 38.2991 61.0496 38.6548 61.1672C39.0424 61.3008 39.584 61.3649 40.269 61.3649C40.9539 61.3649 41.4955 61.3008 41.8938 61.1672C42.2495 61.0443 42.4301 60.8893 42.4301 60.7076C42.4301 60.526 42.2495 60.3603 41.8938 60.2374C41.4955 60.1092 40.9593 60.0451 40.269 60.0451C39.5787 60.0451 39.0424 60.1092 38.6548 60.2374ZM38.7026 64.897C38.3575 65.0092 38.1823 65.1428 38.1823 65.3084C38.1823 65.4741 38.3522 65.6076 38.7026 65.7199C39.0902 65.8428 39.6212 65.9069 40.2902 65.9069C40.9593 65.9069 41.4584 65.8428 41.8407 65.7199C42.1911 65.6076 42.3717 65.4741 42.3717 65.3084C42.3717 65.1428 42.1964 65.0092 41.8407 64.897C41.4584 64.7741 40.9433 64.7153 40.2902 64.7153C39.6371 64.7153 39.0955 64.7741 38.7026 64.897ZM41.4 62.6206V62.1504C41.2407 62.1718 41.0601 62.1878 40.869 62.2038C40.6938 62.2145 40.5026 62.2199 40.2849 62.2199C40.0672 62.2199 39.8655 62.2199 39.6902 62.2038C39.4938 62.1878 39.3132 62.1718 39.154 62.1504V62.6206H41.4ZM50.5752 59.3878V61.6481C50.5752 62.7275 50.2301 63.6359 49.5345 64.368C48.892 65.0412 47.9363 65.5809 46.6672 65.9977L46.1203 65.3779C47.0495 65.0519 47.7663 64.6405 48.2814 64.1382C48.9026 63.5344 49.2106 62.813 49.2106 61.9634V60.2107H46.3433V59.3825H50.5752V59.3878ZM53.6548 59.2382V62.1931H54.5947V63.0267H53.6548V66.5321H52.2796V59.2382H53.6548Z" fill="white"/>
</g>
<defs>
<clipPath id="clip0_65_90">
<rect width="60" height="70" fill="white"/>
</clipPath>
</defs>
</svg>
